<svg xmlns="http://www.w3.org/2000/svg" xmlns:xlink="http://www.w3.org/1999/xlink" width="500" zoomAndPan="magnify" viewBox="0 0 375 74.999997" height="100" preserveAspectRatio="xMidYMid meet" version="1.0"><defs><g/><clipPath id="597ce95bc1"><rect x="0" width="228" y="0" height="62"/></clipPath><clipPath id="4a3c448f1b"><path d="M 46 7 L 54 7 L 54 17.441406 L 46 17.441406 Z M 46 7 " clip-rule="nonzero"/></clipPath><clipPath id="a473af44a8"><path d="M 114 7 L 122 7 L 122 17.441406 L 114 17.441406 Z M 114 7 " clip-rule="nonzero"/></clipPath><clipPath id="e581fc11b1"><rect x="0" width="175" y="0" height="18"/></clipPath><clipPath id="c256acc9d3"><path d="M 7.5 47.195312 L 91.5 47.195312 L 91.5 72.695312 L 7.5 72.695312 Z M 7.5 47.195312 " clip-rule="nonzero"/></clipPath><clipPath id="b51b19e0f4"><path d="M 27 11 L 84.5 11 L 84.5 15 L 27 15 Z M 27 11 " clip-rule="nonzero"/></clipPath><clipPath id="5a65ae8b89"><path d="M 1 0.195312 L 33 0.195312 L 33 25.695312 L 1 25.695312 Z M 1 0.195312 " clip-rule="nonzero"/></clipPath><clipPath id="86b61a28a7"><rect x="0" width="85" y="0" height="26"/></clipPath><clipPath id="c2c3147842"><path d="M 290.632812 57 L 343 57 L 343 61 L 290.632812 61 Z M 290.632812 57 " clip-rule="nonzero"/></clipPath><clipPath id="74a852c6ce"><path d="M 338 47.257812 L 367.132812 47.257812 L 367.132812 70.507812 L 338 70.507812 Z M 338 47.257812 " clip-rule="nonzero"/></clipPath></defs><g transform="matrix(1, 0, 0, 1, 70, -0.000000000000001893)"><g clip-path="url(#597ce95bc1)"><g fill="#ffffff" fill-opacity="1"><g transform="translate(0.236806, 47.096753)"><g><path d="M 14.40625 -36.59375 C 16.40625 -36.59375 17.945312 -36.378906 19.03125 -35.953125 C 20.113281 -35.535156 21.046875 -35.085938 21.828125 -34.609375 C 22.234375 -34.367188 22.5625 -34.191406 22.8125 -34.078125 C 23.0625 -33.960938 23.304688 -33.90625 23.546875 -33.90625 C 23.890625 -33.90625 24.132812 -34.085938 24.28125 -34.453125 C 24.4375 -34.828125 24.566406 -35.390625 24.671875 -36.140625 L 25.828125 -36.140625 C 25.796875 -35.492188 25.753906 -34.722656 25.703125 -33.828125 C 25.648438 -32.929688 25.613281 -31.753906 25.59375 -30.296875 C 25.582031 -28.835938 25.578125 -26.925781 25.578125 -24.5625 L 24.40625 -24.5625 C 24.269531 -26.320312 23.863281 -28.03125 23.1875 -29.6875 C 22.507812 -31.34375 21.550781 -32.703125 20.3125 -33.765625 C 19.082031 -34.835938 17.570312 -35.375 15.78125 -35.375 C 14.15625 -35.375 12.816406 -34.914062 11.765625 -34 C 10.722656 -33.082031 10.203125 -31.816406 10.203125 -30.203125 C 10.203125 -28.847656 10.539062 -27.6875 11.21875 -26.71875 C 11.894531 -25.757812 12.882812 -24.820312 14.1875 -23.90625 C 15.488281 -22.988281 17.070312 -21.890625 18.9375 -20.609375 C 20.550781 -19.554688 22 -18.503906 23.28125 -17.453125 C 24.570312 -16.410156 25.609375 -15.226562 26.390625 -13.90625 C 27.171875 -12.582031 27.5625 -11.007812 27.5625 -9.1875 C 27.5625 -6.957031 26.976562 -5.113281 25.8125 -3.65625 C 24.644531 -2.195312 23.113281 -1.101562 21.21875 -0.375 C 19.320312 0.34375 17.238281 0.703125 14.96875 0.703125 C 12.875 0.703125 11.195312 0.5 9.9375 0.09375 C 8.6875 -0.300781 7.640625 -0.722656 6.796875 -1.171875 C 6.054688 -1.640625 5.484375 -1.875 5.078125 -1.875 C 4.734375 -1.875 4.484375 -1.6875 4.328125 -1.3125 C 4.179688 -0.945312 4.054688 -0.390625 3.953125 0.359375 L 2.796875 0.359375 C 2.859375 -0.453125 2.894531 -1.398438 2.90625 -2.484375 C 2.925781 -3.566406 2.945312 -4.976562 2.96875 -6.71875 C 2.988281 -8.46875 3 -10.675781 3 -13.34375 L 4.15625 -13.34375 C 4.289062 -11.113281 4.671875 -9.023438 5.296875 -7.078125 C 5.929688 -5.128906 6.898438 -3.5625 8.203125 -2.375 C 9.503906 -1.195312 11.234375 -0.609375 13.390625 -0.609375 C 14.578125 -0.609375 15.632812 -0.816406 16.5625 -1.234375 C 17.5 -1.660156 18.253906 -2.296875 18.828125 -3.140625 C 19.398438 -3.992188 19.6875 -5.046875 19.6875 -6.296875 C 19.6875 -7.710938 19.359375 -8.945312 18.703125 -10 C 18.046875 -11.050781 17.148438 -12.03125 16.015625 -12.9375 C 14.878906 -13.851562 13.566406 -14.785156 12.078125 -15.734375 C 10.484375 -16.785156 8.992188 -17.832031 7.609375 -18.875 C 6.222656 -19.925781 5.113281 -21.128906 4.28125 -22.484375 C 3.457031 -23.835938 3.046875 -25.441406 3.046875 -27.296875 C 3.046875 -29.429688 3.578125 -31.179688 4.640625 -32.546875 C 5.710938 -33.921875 7.117188 -34.9375 8.859375 -35.59375 C 10.597656 -36.257812 12.445312 -36.59375 14.40625 -36.59375 Z M 14.40625 -36.59375 "/></g></g></g><g fill="#ffffff" fill-opacity="1"><g transform="translate(29.87518, 47.096753)"><g><path d="M 23.25 0 L 23.25 -1.015625 C 24.332031 -1.078125 25.140625 -1.207031 25.671875 -1.40625 C 26.210938 -1.613281 26.578125 -2.019531 26.765625 -2.625 C 26.953125 -3.238281 27.046875 -4.15625 27.046875 -5.375 L 27.046875 -30.546875 C 27.046875 -31.796875 26.953125 -32.71875 26.765625 -33.3125 C 26.578125 -33.90625 26.203125 -34.3125 25.640625 -34.53125 C 25.085938 -34.75 24.289062 -34.878906 23.25 -34.921875 L 23.25 -35.9375 C 24.15625 -35.894531 25.34375 -35.859375 26.8125 -35.828125 C 28.289062 -35.796875 29.757812 -35.78125 31.21875 -35.78125 C 32.769531 -35.78125 34.226562 -35.796875 35.59375 -35.828125 C 36.96875 -35.859375 38.078125 -35.894531 38.921875 -35.9375 L 38.921875 -34.921875 C 37.835938 -34.878906 37.015625 -34.75 36.453125 -34.53125 C 35.898438 -34.3125 35.539062 -33.90625 35.375 -33.3125 C 35.207031 -32.71875 35.125 -31.796875 35.125 -30.546875 L 35.125 -5.375 C 35.125 -4.15625 35.210938 -3.238281 35.390625 -2.625 C 35.578125 -2.019531 35.941406 -1.613281 36.484375 -1.40625 C 37.023438 -1.207031 37.835938 -1.078125 38.921875 -1.015625 L 38.921875 0 C 38.078125 -0.0625 36.96875 -0.101562 35.59375 -0.125 C 34.226562 -0.144531 32.769531 -0.15625 31.21875 -0.15625 C 29.757812 -0.15625 28.289062 -0.144531 26.8125 -0.125 C 25.34375 -0.101562 24.15625 -0.0625 23.25 0 Z M 1.71875 0 L 1.71875 -1.015625 C 2.800781 -1.078125 3.613281 -1.207031 4.15625 -1.40625 C 4.695312 -1.613281 5.0625 -2.019531 5.25 -2.625 C 5.4375 -3.238281 5.53125 -4.15625 5.53125 -5.375 L 5.53125 -30.546875 C 5.53125 -31.796875 5.4375 -32.71875 5.25 -33.3125 C 5.0625 -33.90625 4.6875 -34.3125 4.125 -34.53125 C 3.570312 -34.75 2.769531 -34.878906 1.71875 -34.921875 L 1.71875 -35.9375 C 2.601562 -35.894531 3.742188 -35.859375 5.140625 -35.828125 C 6.546875 -35.796875 8.082031 -35.78125 9.75 -35.78125 C 11.164062 -35.78125 12.566406 -35.796875 13.953125 -35.828125 C 15.335938 -35.859375 16.488281 -35.894531 17.40625 -35.9375 L 17.40625 -34.921875 C 16.320312 -34.878906 15.5 -34.75 14.9375 -34.53125 C 14.382812 -34.3125 14.019531 -33.90625 13.84375 -33.3125 C 13.675781 -32.71875 13.59375 -31.796875 13.59375 -30.546875 L 13.59375 -5.375 C 13.59375 -4.15625 13.6875 -3.238281 13.875 -2.625 C 14.0625 -2.019531 14.425781 -1.613281 14.96875 -1.40625 C 15.507812 -1.207031 16.320312 -1.078125 17.40625 -1.015625 L 17.40625 0 C 16.488281 -0.0625 15.335938 -0.101562 13.953125 -0.125 C 12.566406 -0.144531 11.164062 -0.15625 9.75 -0.15625 C 8.082031 -0.15625 6.546875 -0.144531 5.140625 -0.125 C 3.742188 -0.101562 2.601562 -0.0625 1.71875 0 Z M 10.296875 -17.5625 L 10.296875 -18.578125 L 30.34375 -18.578125 L 30.34375 -17.5625 Z M 10.296875 -17.5625 "/></g></g></g><g fill="#ffffff" fill-opacity="1"><g transform="translate(70.4757, 47.096753)"><g><path d="M 28.875 -35.9375 C 28.738281 -34.445312 28.644531 -33.003906 28.59375 -31.609375 C 28.539062 -30.222656 28.515625 -29.160156 28.515625 -28.421875 C 28.515625 -27.742188 28.53125 -27.097656 28.5625 -26.484375 C 28.601562 -25.878906 28.640625 -25.375 28.671875 -24.96875 L 27.5 -24.96875 C 27.164062 -27.4375 26.644531 -29.390625 25.9375 -30.828125 C 25.226562 -32.265625 24.304688 -33.28125 23.171875 -33.875 C 22.035156 -34.46875 20.707031 -34.765625 19.1875 -34.765625 L 17.109375 -34.765625 C 16.117188 -34.765625 15.367188 -34.675781 14.859375 -34.5 C 14.359375 -34.332031 14.019531 -33.992188 13.84375 -33.484375 C 13.675781 -32.984375 13.59375 -32.207031 13.59375 -31.15625 L 13.59375 -4.765625 C 13.59375 -3.722656 13.675781 -2.945312 13.84375 -2.4375 C 14.019531 -1.925781 14.359375 -1.585938 14.859375 -1.421875 C 15.367188 -1.253906 16.117188 -1.171875 17.109375 -1.171875 L 19.59375 -1.171875 C 21.113281 -1.171875 22.457031 -1.5 23.625 -2.15625 C 24.789062 -2.8125 25.785156 -3.9375 26.609375 -5.53125 C 27.441406 -7.125 28.078125 -9.273438 28.515625 -11.984375 L 29.6875 -11.984375 C 29.582031 -10.898438 29.53125 -9.476562 29.53125 -7.71875 C 29.53125 -6.9375 29.546875 -5.832031 29.578125 -4.40625 C 29.617188 -2.988281 29.722656 -1.519531 29.890625 0 C 28.160156 -0.0625 26.210938 -0.101562 24.046875 -0.125 C 21.890625 -0.144531 19.960938 -0.15625 18.265625 -0.15625 C 17.421875 -0.15625 16.335938 -0.15625 15.015625 -0.15625 C 13.703125 -0.15625 12.28125 -0.144531 10.75 -0.125 C 9.226562 -0.101562 7.691406 -0.0820312 6.140625 -0.0625 C 4.585938 -0.0507812 3.113281 -0.03125 1.71875 0 L 1.71875 -1.015625 C 2.800781 -1.078125 3.613281 -1.207031 4.15625 -1.40625 C 4.695312 -1.613281 5.0625 -2.019531 5.25 -2.625 C 5.4375 -3.238281 5.53125 -4.15625 5.53125 -5.375 L 5.53125 -30.546875 C 5.53125 -31.796875 5.4375 -32.71875 5.25 -33.3125 C 5.0625 -33.90625 4.6875 -34.3125 4.125 -34.53125 C 3.570312 -34.75 2.769531 -34.878906 1.71875 -34.921875 L 1.71875 -35.9375 C 3.113281 -35.894531 4.585938 -35.863281 6.140625 -35.84375 C 7.691406 -35.832031 9.226562 -35.816406 10.75 -35.796875 C 12.28125 -35.785156 13.703125 -35.78125 15.015625 -35.78125 C 16.335938 -35.78125 17.421875 -35.78125 18.265625 -35.78125 C 19.828125 -35.78125 21.597656 -35.785156 23.578125 -35.796875 C 25.554688 -35.816406 27.320312 -35.863281 28.875 -35.9375 Z M 20.953125 -18.578125 C 20.953125 -18.578125 20.953125 -18.40625 20.953125 -18.0625 C 20.953125 -17.726562 20.953125 -17.5625 20.953125 -17.5625 L 12.078125 -17.5625 C 12.078125 -17.5625 12.078125 -17.726562 12.078125 -18.0625 C 12.078125 -18.40625 12.078125 -18.578125 12.078125 -18.578125 Z M 22.4375 -25.28125 C 22.300781 -23.34375 22.238281 -21.863281 22.25 -20.84375 C 22.269531 -19.832031 22.28125 -18.90625 22.28125 -18.0625 C 22.28125 -17.21875 22.296875 -16.285156 22.328125 -15.265625 C 22.359375 -14.253906 22.441406 -12.785156 22.578125 -10.859375 L 21.421875 -10.859375 C 21.242188 -12.046875 20.925781 -13.144531 20.46875 -14.15625 C 20.019531 -15.175781 19.367188 -16 18.515625 -16.625 C 17.671875 -17.25 16.570312 -17.5625 15.21875 -17.5625 L 15.21875 -18.578125 C 16.238281 -18.578125 17.101562 -18.785156 17.8125 -19.203125 C 18.519531 -19.628906 19.101562 -20.1875 19.5625 -20.875 C 20.019531 -21.570312 20.382812 -22.3125 20.65625 -23.09375 C 20.925781 -23.875 21.128906 -24.601562 21.265625 -25.28125 Z M 22.4375 -25.28125 "/></g></g></g><g fill="#ffffff" fill-opacity="1"><g transform="translate(102.651594, 47.096753)"><g><path d="M 17.40625 -35.9375 L 17.40625 -34.921875 C 16.320312 -34.878906 15.5 -34.75 14.9375 -34.53125 C 14.382812 -34.3125 14.019531 -33.90625 13.84375 -33.3125 C 13.675781 -32.71875 13.59375 -31.796875 13.59375 -30.546875 L 13.59375 -5.375 C 13.59375 -4.15625 13.6875 -3.238281 13.875 -2.625 C 14.0625 -2.019531 14.425781 -1.613281 14.96875 -1.40625 C 15.507812 -1.207031 16.320312 -1.078125 17.40625 -1.015625 L 17.40625 0 C 16.488281 -0.0625 15.335938 -0.101562 13.953125 -0.125 C 12.566406 -0.144531 11.164062 -0.15625 9.75 -0.15625 C 8.082031 -0.15625 6.546875 -0.144531 5.140625 -0.125 C 3.742188 -0.101562 2.601562 -0.0625 1.71875 0 L 1.71875 -1.015625 C 2.800781 -1.078125 3.613281 -1.207031 4.15625 -1.40625 C 4.695312 -1.613281 5.0625 -2.019531 5.25 -2.625 C 5.4375 -3.238281 5.53125 -4.15625 5.53125 -5.375 L 5.53125 -30.546875 C 5.53125 -31.796875 5.4375 -32.71875 5.25 -33.3125 C 5.0625 -33.90625 4.6875 -34.3125 4.125 -34.53125 C 3.570312 -34.75 2.769531 -34.878906 1.71875 -34.921875 L 1.71875 -35.9375 C 2.601562 -35.894531 3.742188 -35.859375 5.140625 -35.828125 C 6.546875 -35.796875 8.082031 -35.78125 9.75 -35.78125 C 11.164062 -35.78125 12.566406 -35.796875 13.953125 -35.828125 C 15.335938 -35.859375 16.488281 -35.894531 17.40625 -35.9375 Z M 17.40625 -35.9375 "/></g></g></g><g fill="#ffffff" fill-opacity="1"><g transform="translate(121.73383, 47.096753)"><g><path d="M 35.171875 -35.9375 L 35.171875 -34.921875 C 34.085938 -34.785156 33.273438 -34.503906 32.734375 -34.078125 C 32.191406 -33.648438 31.828125 -32.976562 31.640625 -32.0625 C 31.453125 -31.15625 31.359375 -29.875 31.359375 -28.21875 L 31.359375 0.09375 C 30.953125 0.0625 30.535156 0.046875 30.109375 0.046875 C 29.691406 0.046875 29.25 0.0625 28.78125 0.09375 L 6.75 -27.8125 L 6.75 -8.328125 C 6.75 -6.460938 6.847656 -5.03125 7.046875 -4.03125 C 7.253906 -3.03125 7.703125 -2.316406 8.390625 -1.890625 C 9.085938 -1.472656 10.179688 -1.179688 11.671875 -1.015625 L 11.671875 0 C 11.023438 -0.0625 10.175781 -0.101562 9.125 -0.125 C 8.082031 -0.144531 7.101562 -0.15625 6.1875 -0.15625 C 5.414062 -0.15625 4.625 -0.144531 3.8125 -0.125 C 3 -0.101562 2.320312 -0.0625 1.78125 0 L 1.78125 -1.015625 C 2.863281 -1.179688 3.675781 -1.46875 4.21875 -1.875 C 4.757812 -2.28125 5.117188 -2.945312 5.296875 -3.875 C 5.484375 -4.8125 5.578125 -6.09375 5.578125 -7.71875 L 5.578125 -30.546875 C 5.578125 -31.796875 5.484375 -32.71875 5.296875 -33.3125 C 5.117188 -33.90625 4.75 -34.3125 4.1875 -34.53125 C 3.625 -34.75 2.820312 -34.878906 1.78125 -34.921875 L 1.78125 -35.9375 C 2.320312 -35.894531 3 -35.859375 3.8125 -35.828125 C 4.625 -35.796875 5.414062 -35.78125 6.1875 -35.78125 C 7 -35.78125 7.773438 -35.796875 8.515625 -35.828125 C 9.265625 -35.859375 9.945312 -35.894531 10.5625 -35.9375 L 30.203125 -11.71875 L 30.203125 -27.609375 C 30.203125 -29.472656 30.097656 -30.898438 29.890625 -31.890625 C 29.691406 -32.890625 29.242188 -33.609375 28.546875 -34.046875 C 27.847656 -34.492188 26.757812 -34.785156 25.28125 -34.921875 L 25.28125 -35.9375 C 25.914062 -35.894531 26.757812 -35.859375 27.8125 -35.828125 C 28.863281 -35.796875 29.84375 -35.78125 30.75 -35.78125 C 31.5625 -35.78125 32.363281 -35.796875 33.15625 -35.828125 C 33.957031 -35.859375 34.628906 -35.894531 35.171875 -35.9375 Z M 35.171875 -35.9375 "/></g></g></g><g fill="#ffffff" fill-opacity="1"><g transform="translate(157.716018, 47.096753)"><g><path d="M 18.671875 -36.03125 L 31.015625 -4.265625 C 31.484375 -3.046875 32.015625 -2.207031 32.609375 -1.75 C 33.203125 -1.289062 33.734375 -1.046875 34.203125 -1.015625 L 34.203125 0 C 33.191406 -0.0625 32 -0.101562 30.625 -0.125 C 29.257812 -0.144531 27.878906 -0.15625 26.484375 -0.15625 C 24.929688 -0.15625 23.460938 -0.144531 22.078125 -0.125 C 20.691406 -0.101562 19.59375 -0.0625 18.78125 0 L 18.78125 -1.015625 C 20.5 -1.078125 21.585938 -1.367188 22.046875 -1.890625 C 22.503906 -2.421875 22.394531 -3.550781 21.71875 -5.28125 L 13.09375 -28.875 L 14 -30.203125 L 6.296875 -10.09375 C 5.546875 -8.238281 5.09375 -6.71875 4.9375 -5.53125 C 4.789062 -4.34375 4.878906 -3.425781 5.203125 -2.78125 C 5.523438 -2.144531 6.046875 -1.695312 6.765625 -1.4375 C 7.492188 -1.1875 8.367188 -1.046875 9.390625 -1.015625 L 9.390625 0 C 8.273438 -0.0625 7.207031 -0.101562 6.1875 -0.125 C 5.175781 -0.144531 4.144531 -0.15625 3.09375 -0.15625 C 2.351562 -0.15625 1.648438 -0.144531 0.984375 -0.125 C 0.328125 -0.101562 -0.253906 -0.0625 -0.765625 0 L -0.765625 -1.015625 C -0.0546875 -1.148438 0.664062 -1.601562 1.40625 -2.375 C 2.15625 -3.15625 2.890625 -4.476562 3.609375 -6.34375 L 15.171875 -36.03125 C 15.710938 -36 16.296875 -35.984375 16.921875 -35.984375 C 17.546875 -35.984375 18.128906 -36 18.671875 -36.03125 Z M 22.234375 -14.609375 L 22.234375 -13.59375 L 7.109375 -13.59375 L 7.609375 -14.609375 Z M 22.234375 -14.609375 "/></g></g></g><g fill="#ffffff" fill-opacity="1"><g transform="translate(190.551636, 47.096753)"><g><path d="M 1.71875 -35.9375 C 2.570312 -35.894531 3.71875 -35.859375 5.15625 -35.828125 C 6.59375 -35.796875 8.019531 -35.78125 9.4375 -35.78125 C 11.0625 -35.78125 12.632812 -35.796875 14.15625 -35.828125 C 15.675781 -35.859375 16.757812 -35.875 17.40625 -35.875 C 20.550781 -35.875 23.164062 -35.523438 25.25 -34.828125 C 27.332031 -34.140625 28.890625 -33.132812 29.921875 -31.8125 C 30.953125 -30.5 31.46875 -28.910156 31.46875 -27.046875 C 31.46875 -25.898438 31.226562 -24.742188 30.75 -23.578125 C 30.28125 -22.410156 29.476562 -21.328125 28.34375 -20.328125 C 27.207031 -19.328125 25.65625 -18.53125 23.6875 -17.9375 C 21.726562 -17.34375 19.265625 -17.046875 16.296875 -17.046875 L 11.421875 -17.046875 L 11.421875 -18.0625 L 15.78125 -18.0625 C 17.78125 -18.0625 19.296875 -18.441406 20.328125 -19.203125 C 21.359375 -19.960938 22.066406 -20.976562 22.453125 -22.25 C 22.847656 -23.519531 23.046875 -24.929688 23.046875 -26.484375 C 23.046875 -29.160156 22.570312 -31.234375 21.625 -32.703125 C 20.675781 -34.179688 19.050781 -34.921875 16.75 -34.921875 C 15.425781 -34.921875 14.566406 -34.628906 14.171875 -34.046875 C 13.785156 -33.472656 13.59375 -32.304688 13.59375 -30.546875 L 13.59375 -5.375 C 13.59375 -4.15625 13.6875 -3.238281 13.875 -2.625 C 14.0625 -2.019531 14.425781 -1.613281 14.96875 -1.40625 C 15.507812 -1.207031 16.320312 -1.078125 17.40625 -1.015625 L 17.40625 0 C 16.488281 -0.0625 15.335938 -0.101562 13.953125 -0.125 C 12.566406 -0.144531 11.164062 -0.15625 9.75 -0.15625 C 8.125 -0.15625 6.59375 -0.144531 5.15625 -0.125 C 3.71875 -0.101562 2.570312 -0.0625 1.71875 0 L 1.71875 -1.015625 C 2.800781 -1.078125 3.613281 -1.207031 4.15625 -1.40625 C 4.695312 -1.613281 5.0625 -2.019531 5.25 -2.625 C 5.4375 -3.238281 5.53125 -4.15625 5.53125 -5.375 L 5.53125 -30.546875 C 5.53125 -31.796875 5.4375 -32.71875 5.25 -33.3125 C 5.0625 -33.90625 4.6875 -34.3125 4.125 -34.53125 C 3.570312 -34.75 2.769531 -34.878906 1.71875 -34.921875 Z M 11.3125 -17.921875 C 12.769531 -17.878906 14.03125 -17.804688 15.09375 -17.703125 C 16.164062 -17.609375 17.101562 -17.519531 17.90625 -17.4375 C 18.71875 -17.351562 19.445312 -17.289062 20.09375 -17.25 C 23.175781 -16.976562 25.453125 -16.316406 26.921875 -15.265625 C 28.390625 -14.222656 29.347656 -12.65625 29.796875 -10.5625 L 30.953125 -5.328125 C 31.265625 -3.972656 31.585938 -3.023438 31.921875 -2.484375 C 32.253906 -1.941406 32.742188 -1.671875 33.390625 -1.671875 C 33.828125 -1.703125 34.191406 -1.8125 34.484375 -2 C 34.773438 -2.1875 35.085938 -2.46875 35.421875 -2.84375 L 36.140625 -2.234375 C 35.222656 -1.179688 34.238281 -0.429688 33.1875 0.015625 C 32.144531 0.472656 30.878906 0.703125 29.390625 0.703125 C 27.554688 0.703125 26.046875 0.316406 24.859375 -0.453125 C 23.679688 -1.234375 22.90625 -2.671875 22.53125 -4.765625 L 21.625 -9.84375 C 21.382812 -11.269531 21.09375 -12.515625 20.75 -13.578125 C 20.414062 -14.640625 19.953125 -15.484375 19.359375 -16.109375 C 18.765625 -16.734375 17.945312 -17.046875 16.90625 -17.046875 L 11.421875 -17.046875 Z M 11.3125 -17.921875 "/></g></g></g></g></g><g transform="matrix(1, 0, 0, 1, 100, 50)"><g clip-path="url(#e581fc11b1)"><g fill="#ffffff" fill-opacity="1"><g transform="translate(1.241502, 13.168936)"><g><path d="M 8.308594 -3.117188 L 8.09375 -3.117188 C 7.847656 -1.144531 6.535156 -0.316406 4.933594 -0.316406 L 3.117188 -0.316406 L 3.117188 -9.292969 L 4.261719 -9.292969 L 4.261719 -9.609375 L 0.515625 -9.609375 L 0.515625 -9.292969 L 1.660156 -9.292969 L 1.660156 -0.316406 L 0.515625 -0.316406 L 0.515625 0 L 8.308594 0 Z M 8.308594 -3.117188 "/></g></g></g><g fill="#ffffff" fill-opacity="1"><g transform="translate(11.892567, 13.168936)"><g><path d="M 7.164062 -0.316406 L 6.304688 -0.316406 L 6.304688 -5.492188 L 4.246094 -5.492188 L 4.246094 -5.175781 L 5.105469 -5.175781 L 5.105469 -2.101562 C 5.105469 -0.828125 4.21875 -0.144531 3.386719 -0.144531 C 2.902344 -0.144531 2.515625 -0.300781 2.515625 -1.113281 L 2.515625 -5.492188 L 0.457031 -5.492188 L 0.457031 -5.175781 L 1.316406 -5.175781 L 1.316406 -1.773438 C 1.316406 -0.273438 2.246094 0.1875 3.359375 0.1875 C 4.175781 0.1875 4.761719 -0.285156 5.074219 -0.800781 L 5.105469 -0.785156 L 5.105469 0 L 7.164062 0 Z M 7.164062 -0.316406 "/></g></g></g><g fill="#ffffff" fill-opacity="1"><g transform="translate(21.185502, 13.168936)"><g><path d="M 6.449219 -0.316406 L 5.734375 -0.316406 L 3.71875 -3.203125 L 5.320312 -5.175781 L 6.035156 -5.175781 L 6.035156 -5.492188 L 4.132812 -5.492188 L 4.132812 -5.175781 L 4.917969 -5.175781 L 3.53125 -3.472656 L 2.300781 -5.175781 L 3.089844 -5.175781 L 3.089844 -5.492188 L 0.257812 -5.492188 L 0.257812 -5.175781 L 0.972656 -5.175781 L 2.800781 -2.515625 L 1.042969 -0.316406 L 0.328125 -0.316406 L 0.328125 0 L 2.230469 0 L 2.230469 -0.316406 L 1.445312 -0.316406 L 2.988281 -2.246094 L 4.347656 -0.316406 L 3.558594 -0.316406 L 3.558594 0 L 6.449219 0 Z M 6.449219 -0.316406 "/></g></g></g><g fill="#ffffff" fill-opacity="1"><g transform="translate(29.577781, 13.168936)"><g><path d="M 7.164062 -0.316406 L 6.304688 -0.316406 L 6.304688 -5.492188 L 4.246094 -5.492188 L 4.246094 -5.175781 L 5.105469 -5.175781 L 5.105469 -2.101562 C 5.105469 -0.828125 4.21875 -0.144531 3.386719 -0.144531 C 2.902344 -0.144531 2.515625 -0.300781 2.515625 -1.113281 L 2.515625 -5.492188 L 0.457031 -5.492188 L 0.457031 -5.175781 L 1.316406 -5.175781 L 1.316406 -1.773438 C 1.316406 -0.273438 2.246094 0.1875 3.359375 0.1875 C 4.175781 0.1875 4.761719 -0.285156 5.074219 -0.800781 L 5.105469 -0.785156 L 5.105469 0 L 7.164062 0 Z M 7.164062 -0.316406 "/></g></g></g><g fill="#ffffff" fill-opacity="1"><g transform="translate(38.870716, 13.168936)"><g><path d="M 5.589844 -4.203125 C 5.589844 -5.160156 4.847656 -5.675781 4.304688 -5.675781 C 3.601562 -5.675781 2.972656 -5.191406 2.558594 -4.519531 L 2.515625 -4.53125 L 2.515625 -5.492188 L 0.457031 -5.492188 L 0.457031 -5.160156 L 1.316406 -5.160156 L 1.316406 -0.316406 L 0.457031 -0.316406 L 0.457031 0 L 3.375 0 L 3.375 -0.316406 L 2.515625 -0.316406 L 2.515625 -3.015625 C 2.515625 -4.390625 3.488281 -5.304688 4.046875 -5.304688 C 4.304688 -5.304688 4.433594 -5.246094 4.433594 -5.0625 C 4.433594 -4.917969 4.390625 -4.746094 4.316406 -4.5625 C 4.246094 -4.375 4.1875 -4.175781 4.1875 -3.976562 C 4.1875 -3.632812 4.445312 -3.289062 4.859375 -3.289062 C 5.246094 -3.289062 5.589844 -3.675781 5.589844 -4.203125 Z M 5.589844 -4.203125 "/></g></g></g><g clip-path="url(#4a3c448f1b)"><g fill="#ffffff" fill-opacity="1"><g transform="translate(46.605367, 13.168936)"><g><path d="M 6.40625 -5.492188 L 4.417969 -5.492188 L 4.417969 -5.175781 L 5.277344 -5.175781 L 3.761719 -1.53125 L 3.6875 -1.53125 L 2.058594 -5.175781 L 2.917969 -5.175781 L 2.917969 -5.492188 L -0.0703125 -5.492188 L -0.0703125 -5.175781 L 0.785156 -5.175781 L 3.089844 0.0859375 L 2.058594 2.660156 C 1.757812 3.402344 1.15625 3.632812 0.871094 3.632812 C 0.699219 3.632812 0.542969 3.601562 0.457031 3.515625 C 0.371094 3.429688 0.371094 3.316406 0.484375 3.21875 C 0.644531 3.089844 0.773438 2.902344 0.773438 2.601562 C 0.773438 2.34375 0.542969 2.085938 0.242188 2.085938 C -0.171875 2.085938 -0.359375 2.488281 -0.359375 2.832031 C -0.359375 3.386719 0.128906 3.933594 0.871094 3.933594 C 1.5 3.933594 2.015625 3.589844 2.460938 2.515625 L 5.617188 -5.175781 L 6.40625 -5.175781 Z M 6.40625 -5.492188 "/></g></g></g></g><g fill="#ffffff" fill-opacity="1"><g transform="translate(55.069121, 13.168936)"><g/></g></g><g fill="#ffffff" fill-opacity="1"><g transform="translate(59.672914, 13.168936)"><g><path d="M 2.589844 -7.820312 C 2.589844 -8.222656 2.273438 -8.535156 1.871094 -8.535156 C 1.472656 -8.535156 1.15625 -8.222656 1.15625 -7.820312 C 1.15625 -7.421875 1.472656 -7.105469 1.871094 -7.105469 C 2.273438 -7.105469 2.589844 -7.421875 2.589844 -7.820312 Z M 3.375 -0.316406 L 2.515625 -0.316406 L 2.515625 -5.492188 L 0.457031 -5.492188 L 0.457031 -5.175781 L 1.316406 -5.175781 L 1.316406 -0.316406 L 0.457031 -0.316406 L 0.457031 0 L 3.375 0 Z M 3.375 -0.316406 "/></g></g></g><g fill="#ffffff" fill-opacity="1"><g transform="translate(65.248848, 13.168936)"><g><path d="M 7.207031 -0.316406 L 6.347656 -0.316406 L 6.347656 -3.574219 C 6.347656 -5.03125 5.660156 -5.691406 4.359375 -5.691406 C 3.488281 -5.691406 2.886719 -5.132812 2.546875 -4.703125 L 2.515625 -4.71875 L 2.515625 -5.492188 L 0.457031 -5.492188 L 0.457031 -5.175781 L 1.316406 -5.175781 L 1.316406 -0.316406 L 0.457031 -0.316406 L 0.457031 0 L 3.375 0 L 3.375 -0.316406 L 2.515625 -0.316406 L 2.515625 -3.460938 C 2.515625 -4.53125 3.445312 -5.320312 4.074219 -5.320312 C 4.648438 -5.320312 5.148438 -5.046875 5.148438 -4.175781 L 5.148438 -0.316406 L 4.289062 -0.316406 L 4.289062 0 L 7.207031 0 Z M 7.207031 -0.316406 "/></g></g></g><g fill="#ffffff" fill-opacity="1"><g transform="translate(74.656149, 13.168936)"><g/></g></g><g fill="#ffffff" fill-opacity="1"><g transform="translate(79.259942, 13.168936)"><g><path d="M 8.707031 -2.988281 L 8.492188 -2.988281 C 8.308594 -1.257812 6.664062 -0.316406 5.546875 -0.316406 L 3.117188 -0.316406 L 3.117188 -4.761719 L 3.816406 -4.761719 C 5.0625 -4.761719 5.804688 -4.101562 5.804688 -2.800781 L 6.019531 -2.800781 L 6.019531 -6.992188 L 5.804688 -6.992188 C 5.804688 -5.777344 4.917969 -5.105469 3.816406 -5.105469 L 3.117188 -5.105469 L 3.117188 -9.292969 L 5.761719 -9.292969 C 6.878906 -9.292969 7.820312 -8.664062 7.949219 -7.207031 L 8.164062 -7.207031 L 8.164062 -9.609375 L 0.515625 -9.609375 L 0.515625 -9.292969 L 1.660156 -9.292969 L 1.660156 -0.316406 L 0.515625 -0.316406 L 0.515625 0 L 8.707031 0 Z M 8.707031 -2.988281 "/></g></g></g><g fill="#ffffff" fill-opacity="1"><g transform="translate(90.454261, 13.168936)"><g><path d="M 6.449219 -5.492188 L 4.390625 -5.492188 L 4.390625 -5.175781 L 5.246094 -5.175781 L 3.816406 -1.445312 L 3.746094 -1.445312 L 1.957031 -5.175781 L 2.816406 -5.175781 L 2.816406 -5.492188 L -0.171875 -5.492188 L -0.171875 -5.175781 L 0.6875 -5.175781 L 3.175781 0.144531 L 3.574219 0.144531 L 5.589844 -5.175781 L 6.449219 -5.175781 Z M 6.449219 -5.492188 "/></g></g></g><g fill="#ffffff" fill-opacity="1"><g transform="translate(98.932312, 13.168936)"><g><path d="M 6.078125 -2.902344 C 6.078125 -4.21875 5.261719 -5.675781 3.472656 -5.675781 C 1.988281 -5.675781 0.785156 -4.375 0.785156 -2.703125 C 0.785156 -1.285156 1.929688 0.199219 3.660156 0.199219 C 4.703125 0.199219 5.5625 -0.144531 5.992188 -1.257812 L 5.703125 -1.386719 C 5.332031 -0.371094 4.375 -0.113281 3.761719 -0.113281 C 2.757812 -0.113281 2.058594 -0.988281 2.058594 -2.488281 L 2.058594 -2.902344 Z M 2.074219 -3.246094 C 2.160156 -4.605469 2.589844 -5.363281 3.53125 -5.363281 C 4.246094 -5.363281 4.847656 -5.019531 4.847656 -3.847656 L 4.847656 -3.246094 Z M 2.074219 -3.246094 "/></g></g></g><g fill="#ffffff" fill-opacity="1"><g transform="translate(107.46755, 13.168936)"><g><path d="M 5.589844 -4.203125 C 5.589844 -5.160156 4.847656 -5.675781 4.304688 -5.675781 C 3.601562 -5.675781 2.972656 -5.191406 2.558594 -4.519531 L 2.515625 -4.53125 L 2.515625 -5.492188 L 0.457031 -5.492188 L 0.457031 -5.160156 L 1.316406 -5.160156 L 1.316406 -0.316406 L 0.457031 -0.316406 L 0.457031 0 L 3.375 0 L 3.375 -0.316406 L 2.515625 -0.316406 L 2.515625 -3.015625 C 2.515625 -4.390625 3.488281 -5.304688 4.046875 -5.304688 C 4.304688 -5.304688 4.433594 -5.246094 4.433594 -5.0625 C 4.433594 -4.917969 4.390625 -4.746094 4.316406 -4.5625 C 4.246094 -4.375 4.1875 -4.175781 4.1875 -3.976562 C 4.1875 -3.632812 4.445312 -3.289062 4.859375 -3.289062 C 5.246094 -3.289062 5.589844 -3.675781 5.589844 -4.203125 Z M 5.589844 -4.203125 "/></g></g></g><g clip-path="url(#a473af44a8)"><g fill="#ffffff" fill-opacity="1"><g transform="translate(115.2022, 13.168936)"><g><path d="M 6.40625 -5.492188 L 4.417969 -5.492188 L 4.417969 -5.175781 L 5.277344 -5.175781 L 3.761719 -1.53125 L 3.6875 -1.53125 L 2.058594 -5.175781 L 2.917969 -5.175781 L 2.917969 -5.492188 L -0.0703125 -5.492188 L -0.0703125 -5.175781 L 0.785156 -5.175781 L 3.089844 0.0859375 L 2.058594 2.660156 C 1.757812 3.402344 1.15625 3.632812 0.871094 3.632812 C 0.699219 3.632812 0.542969 3.601562 0.457031 3.515625 C 0.371094 3.429688 0.371094 3.316406 0.484375 3.21875 C 0.644531 3.089844 0.773438 2.902344 0.773438 2.601562 C 0.773438 2.34375 0.542969 2.085938 0.242188 2.085938 C -0.171875 2.085938 -0.359375 2.488281 -0.359375 2.832031 C -0.359375 3.386719 0.128906 3.933594 0.871094 3.933594 C 1.5 3.933594 2.015625 3.589844 2.460938 2.515625 L 5.617188 -5.175781 L 6.40625 -5.175781 Z M 6.40625 -5.492188 "/></g></g></g></g><g fill="#ffffff" fill-opacity="1"><g transform="translate(123.665955, 13.168936)"><g/></g></g><g fill="#ffffff" fill-opacity="1"><g transform="translate(128.269748, 13.168936)"><g><path d="M 7.777344 -2.714844 C 7.777344 -4.089844 6.976562 -4.933594 5.660156 -5.40625 L 3.660156 -6.132812 C 2.574219 -6.535156 2.171875 -7.0625 2.171875 -7.890625 C 2.171875 -9.109375 3.246094 -9.449219 4.0625 -9.449219 C 5.589844 -9.449219 6.519531 -8.265625 6.664062 -7.261719 L 6.90625 -7.261719 L 6.90625 -9.664062 L 6.734375 -9.664062 C 6.476562 -9.320312 6.046875 -9.265625 5.617188 -9.4375 C 5.191406 -9.59375 4.71875 -9.765625 4.074219 -9.765625 C 2.488281 -9.765625 1.1875 -8.722656 1.1875 -7.292969 C 1.1875 -5.917969 1.914062 -5.191406 3.230469 -4.703125 L 5.03125 -4.03125 C 6.035156 -3.660156 6.519531 -2.960938 6.519531 -2.117188 C 6.519531 -0.871094 5.734375 -0.1875 4.273438 -0.1875 C 2.832031 -0.1875 1.402344 -1.542969 0.957031 -3.117188 L 0.714844 -3.117188 L 0.714844 -0.15625 L 0.902344 -0.15625 C 1.085938 -0.472656 1.402344 -0.585938 2.101562 -0.398438 C 2.917969 -0.171875 3.332031 0.144531 4.460938 0.144531 C 6.835938 0.144531 7.777344 -1.671875 7.777344 -2.714844 Z M 7.777344 -2.714844 "/></g></g></g><g fill="#ffffff" fill-opacity="1"><g transform="translate(138.248904, 13.168936)"><g><path d="M 3.789062 -1.6875 C 3.746094 -0.472656 3.144531 -0.1875 2.757812 -0.1875 C 2.460938 -0.1875 2.300781 -0.429688 2.300781 -0.914062 L 2.300781 -5.148438 L 3.445312 -5.148438 L 3.445312 -5.492188 L 2.300781 -5.492188 L 2.300781 -8.019531 L 2.230469 -8.050781 C 1.929688 -7.804688 1.488281 -7.507812 1.101562 -7.292969 L 1.101562 -5.492188 L 0.242188 -5.492188 L 0.242188 -5.148438 L 1.101562 -5.148438 L 1.101562 -1.542969 C 1.101562 -0.1875 1.730469 0.1875 2.589844 0.1875 C 3.589844 0.1875 4.074219 -0.644531 4.101562 -1.628906 Z M 3.789062 -1.6875 "/></g></g></g><g fill="#ffffff" fill-opacity="1"><g transform="translate(144.325185, 13.168936)"><g><path d="M 2.589844 -7.820312 C 2.589844 -8.222656 2.273438 -8.535156 1.871094 -8.535156 C 1.472656 -8.535156 1.15625 -8.222656 1.15625 -7.820312 C 1.15625 -7.421875 1.472656 -7.105469 1.871094 -7.105469 C 2.273438 -7.105469 2.589844 -7.421875 2.589844 -7.820312 Z M 3.375 -0.316406 L 2.515625 -0.316406 L 2.515625 -5.492188 L 0.457031 -5.492188 L 0.457031 -5.175781 L 1.316406 -5.175781 L 1.316406 -0.316406 L 0.457031 -0.316406 L 0.457031 0 L 3.375 0 Z M 3.375 -0.316406 "/></g></g></g><g fill="#ffffff" fill-opacity="1"><g transform="translate(149.901135, 13.168936)"><g><path d="M 3.789062 -1.6875 C 3.746094 -0.472656 3.144531 -0.1875 2.757812 -0.1875 C 2.460938 -0.1875 2.300781 -0.429688 2.300781 -0.914062 L 2.300781 -5.148438 L 3.445312 -5.148438 L 3.445312 -5.492188 L 2.300781 -5.492188 L 2.300781 -8.019531 L 2.230469 -8.050781 C 1.929688 -7.804688 1.488281 -7.507812 1.101562 -7.292969 L 1.101562 -5.492188 L 0.242188 -5.492188 L 0.242188 -5.148438 L 1.101562 -5.148438 L 1.101562 -1.542969 C 1.101562 -0.1875 1.730469 0.1875 2.589844 0.1875 C 3.589844 0.1875 4.074219 -0.644531 4.101562 -1.628906 Z M 3.789062 -1.6875 "/></g></g></g><g fill="#ffffff" fill-opacity="1"><g transform="translate(155.977416, 13.168936)"><g><path d="M 6.035156 -3.945312 C 6.035156 -5.003906 4.859375 -5.691406 3.917969 -5.691406 C 2.03125 -5.691406 0.785156 -4.316406 0.785156 -2.703125 C 0.785156 -1.144531 1.929688 0.214844 3.832031 0.214844 C 4.703125 0.214844 5.546875 -0.0585938 6.003906 -0.859375 L 5.761719 -1.042969 C 5.277344 -0.273438 4.445312 -0.113281 3.945312 -0.113281 C 2.773438 -0.113281 2.101562 -0.84375 2.101562 -2.628906 C 2.101562 -4.289062 2.859375 -5.375 3.902344 -5.375 C 4.605469 -5.375 4.832031 -5.003906 4.832031 -4.660156 C 4.832031 -4.359375 4.691406 -4.1875 4.691406 -3.875 C 4.691406 -3.488281 4.917969 -3.160156 5.332031 -3.160156 C 5.71875 -3.160156 6.035156 -3.558594 6.035156 -3.945312 Z M 6.035156 -3.945312 "/></g></g></g><g fill="#ffffff" fill-opacity="1"><g transform="translate(164.584154, 13.168936)"><g><path d="M 7.207031 -0.316406 L 6.347656 -0.316406 L 6.347656 -3.574219 C 6.347656 -5.03125 5.660156 -5.691406 4.359375 -5.691406 C 3.488281 -5.691406 2.945312 -5.203125 2.546875 -4.703125 L 2.515625 -4.71875 L 2.515625 -9.609375 L 0.457031 -9.609375 L 0.457031 -9.292969 L 1.316406 -9.292969 L 1.316406 -0.316406 L 0.457031 -0.316406 L 0.457031 0 L 3.375 0 L 3.375 -0.316406 L 2.515625 -0.316406 L 2.515625 -3.460938 C 2.515625 -4.546875 3.460938 -5.320312 4.074219 -5.320312 C 4.605469 -5.320312 5.148438 -5.191406 5.148438 -4.175781 L 5.148438 -0.316406 L 4.289062 -0.316406 L 4.289062 0 L 7.207031 0 Z M 7.207031 -0.316406 "/></g></g></g></g></g><g clip-path="url(#c256acc9d3)"><g transform="matrix(1, 0, 0, 1, 7, 47)"><g clip-path="url(#86b61a28a7)"><g clip-path="url(#b51b19e0f4)"><path fill="#ffffff" d="M 29.914062 11.851562 L 29.839844 11.851562 C 29.660156 11.851562 29.519531 11.859375 29.417969 11.871094 C 29.355469 11.878906 29.285156 11.902344 29.214844 11.941406 C 28.972656 12.101562 28.84375 12.304688 28.820312 12.539062 C 28.777344 12.738281 28.835938 12.898438 28.996094 13.023438 C 29.117188 13.09375 29.34375 13.128906 29.679688 13.136719 C 29.777344 13.136719 29.972656 13.128906 30.261719 13.117188 L 32.429688 12.980469 C 32.566406 12.976562 32.949219 12.976562 33.578125 12.980469 L 33.667969 12.972656 C 33.898438 12.945312 34.058594 12.917969 34.148438 12.886719 C 34.257812 12.832031 34.324219 12.757812 34.339844 12.660156 C 34.359375 12.566406 34.34375 12.453125 34.289062 12.3125 C 34.160156 12.21875 33.902344 12.136719 33.523438 12.066406 C 33.121094 11.984375 32.644531 11.929688 32.089844 11.898438 C 31.964844 11.890625 31.796875 11.882812 31.582031 11.871094 C 30.78125 11.855469 30.222656 11.851562 29.914062 11.851562 M 28.738281 11.078125 L 28.753906 11.078125 C 30.527344 11.21875 32.226562 11.316406 33.847656 11.382812 C 39.027344 11.558594 42.136719 11.664062 43.179688 11.695312 C 49.714844 11.875 54.574219 12.015625 57.761719 12.117188 C 59.265625 12.167969 63.027344 12.328125 69.054688 12.601562 L 73.679688 12.785156 L 79.183594 13.039062 C 79.660156 13.066406 80.855469 13.199219 82.765625 13.429688 C 83.066406 13.429688 83.464844 13.613281 83.964844 13.972656 C 84.039062 13.996094 84.21875 14.015625 84.5 14.027344 C 83.96875 13.996094 82.136719 14.042969 79 14.167969 C 78.628906 14.175781 77.960938 14.175781 77 14.171875 L 72.457031 14.136719 L 55.382812 13.847656 C 49.375 13.765625 45.640625 13.722656 44.179688 13.714844 C 41.761719 13.691406 38.335938 13.695312 33.898438 13.71875 C 32.136719 13.730469 30.609375 13.753906 29.324219 13.796875 L 28.878906 13.746094 L 28.390625 13.546875 C 28.195312 13.363281 28.019531 13.109375 27.871094 12.777344 C 27.785156 12.339844 27.84375 11.886719 28.050781 11.417969 C 28.199219 11.191406 28.429688 11.078125 28.738281 11.078125 Z M 28.738281 11.078125 " fill-opacity="1" fill-rule="nonzero"/></g><g clip-path="url(#5a65ae8b89)"><path fill="#ffffff" d="M 22.160156 7.382812 L 22.0625 7.433594 C 20.5 8.234375 19.402344 9.066406 18.761719 9.929688 C 17.882812 10.925781 17.371094 12.035156 17.226562 13.253906 C 17.167969 13.898438 17.234375 14.53125 17.425781 15.152344 C 17.617188 15.746094 17.882812 16.199219 18.230469 16.523438 C 19.085938 17.238281 20.066406 17.34375 21.164062 16.839844 C 21.722656 16.542969 22.207031 16.007812 22.613281 15.230469 C 22.984375 14.5 23.230469 13.65625 23.34375 12.699219 C 23.539062 10.78125 23.144531 9.007812 22.160156 7.382812 M 7.625 5.695312 L 7.53125 5.753906 C 5.6875 6.953125 4.230469 8.667969 3.164062 10.898438 C 2.234375 12.898438 1.902344 15.125 2.164062 17.574219 C 2.527344 19.96875 3.539062 21.84375 5.191406 23.1875 C 7.019531 24.691406 8.550781 24.984375 9.789062 24.0625 C 10.757812 23.429688 11.375 22.441406 11.636719 21.09375 C 12.003906 19.210938 12.078125 17.171875 11.867188 14.976562 C 11.722656 13.699219 11.242188 12.171875 10.429688 10.390625 C 10.039062 9.558594 9.523438 8.527344 8.875 7.296875 C 8.652344 6.898438 8.234375 6.363281 7.625 5.695312 M 3.007812 0.191406 L 3.035156 0.191406 C 4.78125 1.191406 6.414062 2.574219 7.929688 4.339844 C 10.242188 3.097656 12.738281 2.539062 15.414062 2.671875 C 18.402344 2.792969 20.769531 4.003906 22.519531 6.296875 C 24.808594 5.273438 26.902344 5.023438 28.800781 5.550781 C 30.578125 6.183594 31.683594 7.660156 32.113281 9.976562 C 32.402344 11.546875 32.3125 12.925781 31.835938 14.105469 C 31.222656 15.574219 30.46875 16.398438 29.5625 16.578125 C 29.65625 16.503906 29.75 16.390625 29.84375 16.242188 L 31.042969 14.292969 C 31.308594 13.746094 31.480469 13.136719 31.5625 12.46875 C 31.683594 10.640625 31.351562 9.082031 30.558594 7.78125 C 29.210938 5.769531 26.6875 5.503906 22.992188 6.984375 C 24.410156 9.519531 24.683594 12.105469 23.808594 14.734375 C 22.933594 17.175781 21.382812 18.253906 19.15625 17.976562 C 18.148438 17.753906 17.390625 17.136719 16.882812 16.125 C 16.367188 15.046875 16.234375 13.859375 16.484375 12.566406 C 16.714844 11.484375 17.207031 10.5 17.96875 9.605469 C 18.6875 8.566406 19.929688 7.597656 21.703125 6.699219 L 21.550781 6.5 C 20.359375 4.960938 18.550781 4.023438 16.125 3.691406 C 13.625 3.425781 11.121094 3.898438 8.617188 5.109375 C 9.132812 5.691406 9.515625 6.210938 9.765625 6.667969 C 10.960938 8.898438 11.785156 10.714844 12.242188 12.117188 C 12.867188 13.894531 13.113281 15.917969 12.980469 18.175781 C 12.917969 20.597656 12.507812 22.375 11.753906 23.511719 C 10.574219 25.039062 9.277344 25.726562 7.859375 25.574219 C 6.453125 25.433594 5.050781 24.621094 3.664062 23.136719 C 2.433594 21.835938 1.632812 20.261719 1.269531 18.417969 C 0.753906 15.953125 1.027344 13.425781 2.085938 10.832031 C 3.09375 8.441406 4.710938 6.484375 6.9375 4.960938 C 3.855469 1.933594 2.542969 0.34375 3.007812 0.191406 " fill-opacity="1" fill-rule="nonzero"/></g></g></g></g><g clip-path="url(#c2c3147842)"><path fill="#ffffff" d="M 340.585938 57.921875 L 340.65625 57.921875 C 340.820312 57.921875 340.949219 57.929688 341.039062 57.9375 C 341.097656 57.949219 341.160156 57.96875 341.226562 58.003906 C 341.445312 58.152344 341.566406 58.335938 341.585938 58.550781 C 341.625 58.734375 341.574219 58.882812 341.425781 58.992188 C 341.316406 59.058594 341.109375 59.09375 340.800781 59.097656 C 340.710938 59.097656 340.53125 59.089844 340.265625 59.078125 L 338.285156 58.957031 C 338.160156 58.953125 337.808594 58.949219 337.234375 58.953125 L 337.148438 58.949219 C 336.941406 58.925781 336.796875 58.898438 336.710938 58.867188 C 336.609375 58.820312 336.550781 58.75 336.535156 58.664062 C 336.519531 58.578125 336.535156 58.472656 336.582031 58.34375 C 336.703125 58.257812 336.9375 58.183594 337.285156 58.117188 C 337.652344 58.042969 338.089844 57.992188 338.59375 57.964844 C 338.710938 57.957031 338.863281 57.949219 339.058594 57.941406 C 339.792969 57.925781 340.304688 57.921875 340.585938 57.921875 M 341.660156 57.214844 L 341.648438 57.214844 C 340.023438 57.339844 338.472656 57.433594 336.988281 57.492188 C 332.25 57.65625 329.402344 57.75 328.449219 57.777344 C 322.46875 57.941406 318.023438 58.070312 315.109375 58.164062 C 313.734375 58.210938 310.289062 58.359375 304.773438 58.605469 L 300.546875 58.777344 L 295.511719 59.011719 C 295.070312 59.035156 293.980469 59.152344 292.230469 59.367188 C 291.957031 59.367188 291.589844 59.53125 291.132812 59.859375 C 291.066406 59.882812 290.902344 59.902344 290.644531 59.914062 C 291.128906 59.882812 292.808594 59.925781 295.675781 60.042969 C 296.019531 60.046875 296.628906 60.046875 297.507812 60.042969 L 301.664062 60.015625 L 317.285156 59.746094 C 322.78125 59.671875 326.199219 59.632812 327.535156 59.625 C 329.746094 59.605469 332.878906 59.605469 336.941406 59.632812 C 338.554688 59.640625 339.949219 59.664062 341.125 59.703125 L 341.535156 59.65625 L 341.980469 59.472656 C 342.160156 59.304688 342.316406 59.074219 342.453125 58.769531 C 342.535156 58.367188 342.480469 57.953125 342.292969 57.523438 C 342.15625 57.320312 341.945312 57.214844 341.660156 57.214844 Z M 341.660156 57.214844 " fill-opacity="1" fill-rule="nonzero"/></g><g clip-path="url(#74a852c6ce)"><path fill="#ffffff" d="M 347.679688 53.832031 L 347.769531 53.878906 C 349.199219 54.609375 350.207031 55.371094 350.789062 56.164062 C 351.59375 57.074219 352.0625 58.089844 352.195312 59.203125 C 352.246094 59.792969 352.1875 60.375 352.011719 60.941406 C 351.839844 61.484375 351.59375 61.902344 351.277344 62.195312 C 350.492188 62.847656 349.597656 62.945312 348.59375 62.484375 C 348.082031 62.214844 347.640625 61.722656 347.265625 61.011719 C 346.925781 60.34375 346.703125 59.570312 346.597656 58.695312 C 346.421875 56.941406 346.78125 55.320312 347.679688 53.832031 M 360.980469 52.289062 L 361.066406 52.34375 C 362.753906 53.4375 364.085938 55.007812 365.058594 57.046875 C 365.910156 58.878906 366.214844 60.917969 365.972656 63.15625 C 365.640625 65.347656 364.71875 67.0625 363.207031 68.292969 C 361.535156 69.667969 360.128906 69.933594 358.996094 69.09375 C 358.109375 68.515625 357.546875 67.609375 357.308594 66.375 C 356.972656 64.65625 356.902344 62.789062 357.097656 60.78125 C 357.230469 59.613281 357.671875 58.214844 358.414062 56.585938 C 358.769531 55.824219 359.242188 54.878906 359.835938 53.753906 C 360.039062 53.390625 360.421875 52.902344 360.980469 52.289062 M 365.203125 47.253906 L 365.179688 47.253906 C 363.582031 48.167969 362.085938 49.433594 360.699219 51.050781 C 358.582031 49.910156 356.300781 49.402344 353.851562 49.519531 C 351.117188 49.632812 348.953125 50.742188 347.351562 52.839844 C 345.257812 51.902344 343.34375 51.675781 341.605469 52.15625 C 339.976562 52.734375 338.96875 54.085938 338.574219 56.207031 C 338.308594 57.644531 338.394531 58.902344 338.828125 59.984375 C 339.386719 61.328125 340.082031 62.082031 340.90625 62.246094 C 340.824219 62.179688 340.738281 62.074219 340.648438 61.9375 L 339.554688 60.15625 C 339.3125 59.652344 339.152344 59.097656 339.078125 58.484375 C 338.964844 56.816406 339.273438 55.386719 339.996094 54.199219 C 341.230469 52.355469 343.539062 52.113281 346.921875 53.46875 C 345.621094 55.789062 345.371094 58.152344 346.171875 60.558594 C 346.972656 62.792969 348.394531 63.78125 350.429688 63.523438 C 351.351562 63.320312 352.042969 62.757812 352.507812 61.832031 C 352.980469 60.847656 353.101562 59.757812 352.871094 58.574219 C 352.664062 57.585938 352.210938 56.683594 351.515625 55.867188 C 350.859375 54.917969 349.71875 54.03125 348.097656 53.207031 L 348.238281 53.027344 C 349.328125 51.617188 350.984375 50.761719 353.203125 50.457031 C 355.492188 50.214844 357.78125 50.644531 360.070312 51.753906 C 359.601562 52.285156 359.25 52.761719 359.019531 53.179688 C 357.929688 55.21875 357.171875 56.882812 356.757812 58.164062 C 356.183594 59.792969 355.957031 61.640625 356.082031 63.707031 C 356.136719 65.925781 356.511719 67.550781 357.199219 68.589844 C 358.28125 69.984375 359.46875 70.613281 360.765625 70.476562 C 362.050781 70.347656 363.332031 69.605469 364.605469 68.246094 C 365.730469 67.054688 366.460938 65.617188 366.792969 63.929688 C 367.265625 61.675781 367.015625 59.363281 366.046875 56.988281 C 365.125 54.800781 363.644531 53.011719 361.605469 51.617188 C 364.429688 48.847656 365.628906 47.394531 365.203125 47.253906 " fill-opacity="1" fill-rule="nonzero"/></g></svg>